<svg width="758" height="12" viewBox="0 0 758 12" fill="none" xmlns="http://www.w3.org/2000/svg">
<mask id="mask0_1_13196" style="mask-type:alpha" maskUnits="userSpaceOnUse" x="0" y="0" width="758" height="12">
<rect width="758" height="12" fill="#FF5A00"/>
</mask>
<g mask="url(#mask0_1_13196)">
<path d="M113.854 -2.5387L115.707 -2.69687L112.102 -2.92365L113.83 -3.08965C115.563 -3.08813 117.808 -2.8394 119.03 -2.97156C119.179 -3.09953 117.292 -3.14059 116.811 -3.24255C116.385 -3.34704 116.037 -3.45086 115.772 -3.55276C116.715 -3.55166 117.753 -3.52701 118.823 -3.48027C120.262 -3.40392 121.673 -3.36681 122.901 -3.37302C125.412 -3.3524 127.838 -3.37297 130.568 -3.36844L129.66 -3.6764L133.179 -3.60436C133.551 -3.5809 133.996 -3.61863 134.362 -3.5896C137.412 -3.34403 138.702 -3.47785 140.166 -3.58881C140.466 -3.61752 140.828 -3.63896 141.241 -3.65256C145.309 -3.59373 148.977 -3.24951 152.641 -3.0728C153.33 -3.02768 153.992 -2.96977 154.578 -2.90317C155.852 -2.77369 157.269 -2.66798 158.7 -2.5957C160.131 -2.52342 161.53 -2.4869 162.768 -2.48945C165.507 -2.49231 168.602 -2.40667 171.752 -2.24081C172.689 -2.18618 173.627 -2.15015 174.505 -2.13499C175.383 -2.11984 176.183 -2.1259 176.854 -2.15281L178.984 -1.97701C179.907 -2.04834 181.078 -2.08748 182.425 -2.09205C183.772 -2.09661 185.268 -2.06651 186.821 -2.00357C188.476 -1.93529 190.157 -1.88926 191.874 -1.81707C195.421 -1.67906 198.873 -1.59466 202.123 -1.56648C206.963 -1.48299 211.691 -1.41844 216.574 -1.31434C219.628 -1.2641 222.604 -1.23646 225.484 -1.23158C228.934 -1.21193 232.665 -1.11679 236.499 -0.950755C236.317 -0.794975 234.636 -0.840997 233.508 -0.846269C229.868 -0.87216 226.144 -0.939254 222.4 -0.989656C220.713 -1.00933 219.073 -1.01678 217.488 -1.01196C214.84 -1.01842 212.048 -1.05992 209.16 -1.13577C204.598 -1.21923 200.181 -1.25935 195.956 -1.25572C195.625 -1.24955 195.321 -1.23861 195.05 -1.2231C194.994 -1.20966 194.983 -1.19271 195.018 -1.17389C195.053 -1.15506 195.134 -1.13498 195.252 -1.11557C195.37 -1.09617 195.521 -1.07808 195.692 -1.06305C195.862 -1.04801 196.046 -1.03653 196.226 -1.02971C197.904 -0.924136 199.707 -0.81075 201.289 -0.794797C201.35 -0.793606 201.416 -0.790884 201.48 -0.786827C201.545 -0.782769 201.607 -0.777479 201.662 -0.771338C205.205 -0.548465 208.118 -0.586182 210.878 -0.54992C215.46 -0.451921 219.877 -0.406143 224.062 -0.413284C224.695 -0.412799 225.378 -0.400058 226.087 -0.375525C230.47 -0.276077 234.569 -0.264954 238.191 -0.342659C239.682 -0.362345 241.068 -0.406541 242.67 -0.407281C243.656 -0.410323 244.515 -0.438524 245.195 -0.490199C245.874 -0.541875 246.36 -0.615954 246.623 -0.707983C247.299 -0.659531 247.986 -0.616349 248.674 -0.578956C249.086 -0.557574 249.48 -0.551896 249.778 -0.563085C250.076 -0.574272 250.255 -0.601492 250.279 -0.639238C250.403 -0.744944 249.464 -0.79803 248.649 -0.843298C249.141 -0.865967 249.694 -0.879305 250.297 -0.882986C253.691 -0.907141 257.332 -0.878632 261.14 -0.798088C264.096 -0.701679 266.456 -0.78015 269.567 -0.644193C269.94 -0.620733 270.247 -0.655165 270.59 -0.663433C271.485 -0.706973 272.6 -0.716758 273.838 -0.691936C275.077 -0.667114 276.401 -0.608432 277.696 -0.52098C279.309 -0.759902 282.794 -0.486954 285.367 -0.462426C286.16 -0.340921 285.25 -0.362282 285.212 -0.328902C285.173 -0.29552 285.211 -0.328908 284.901 -0.348458C282.331 -0.176388 278.811 -0.138867 274.834 -0.241171C274.099 -0.240745 273.398 -0.232906 272.739 -0.217729C271.74 -0.196246 270.614 -0.198393 269.41 -0.22407C268.095 -0.242929 266.886 -0.233972 265.843 -0.197632C265.243 -0.198224 264.736 -0.180019 264.368 -0.144693C264 -0.109366 263.784 -0.0580647 263.739 0.00444382C264.14 0.0526337 264.584 0.096727 265.055 0.134975C267.512 0.285993 269.962 0.348504 271.923 0.310207C275.336 0.244222 279.397 0.308613 283.026 0.286086C285.479 0.27696 288.09 0.302956 290.808 0.363583C290.808 0.363583 290.737 0.424782 290.731 0.430345C291.052 0.456842 291.39 0.478101 291.725 0.492908C291.725 0.492908 291.725 0.492909 291.758 0.46509C291.609 0.438377 291.407 0.413246 291.175 0.392607L290.367 0.341774C290.916 0.328547 291.429 0.289163 292.002 0.313226C293.208 0.357932 294.36 0.376806 295.39 0.368725C296.42 0.360644 297.306 0.325772 297.994 0.266201C299.215 0.189854 300.732 0.155136 302.45 0.164286C303.766 0.15595 305.034 0.138035 306.249 0.110632C306.249 0.110632 306.327 0.0438744 306.902 0.00839208C306.357 -0.0353705 305.789 -0.0711072 305.224 -0.0971743C302.764 -0.162303 300.299 -0.221869 297.882 -0.266397C296.992 -0.271207 296.155 -0.263747 295.387 -0.244159C293.261 -0.221241 290.872 -0.253769 288.36 -0.339852C288.36 -0.339852 287.863 -0.37113 287.614 -0.38677C288.319 -0.533524 290.75 -0.386606 291.733 -0.485992C292.331 -0.484182 293.384 -0.471686 293.348 -0.497848C293.266 -0.532764 293.256 -0.565199 293.32 -0.592827C293.383 -0.620457 293.517 -0.642597 293.713 -0.657657C293.909 -0.67272 294.162 -0.680333 294.454 -0.679945C294.746 -0.67956 295.069 -0.67118 295.4 -0.655418C298.167 -0.570154 300.773 -0.546444 303.058 -0.585738C303.925 -0.584979 304.896 -0.559708 305.756 -0.553386C306.282 -0.545771 306.763 -0.550007 307.172 -0.565858C309.249 -0.6826 312.045 -0.691126 315.139 -0.590154C316.635 -0.553853 318.032 -0.548998 319.259 -0.575838C320.132 -0.580643 320.502 -0.497642 321.124 -0.458542L323.763 -0.376118L320.374 -0.272839C321.098 -0.0361549 321.674 0.0418882 322.858 0.0566337C324.585 0.0789004 326.266 0.0889613 327.894 0.0867513C329.097 0.084806 330.09 0.0338339 331.719 0.124369C332.007 0.139135 332.284 0.143914 332.504 0.137905C334.412 0.0575311 336.709 0.0390846 339.239 0.0838251C340.549 -0.0666823 342.78 0.0796511 344.844 0.197555C345.51 0.0841832 344.303 0.0321406 343.583 -0.0370341C345.31 -0.0299529 347.049 -0.0339971 348.831 -0.0174419C349.367 -0.0234695 349.98 -0.013159 350.621 0.0126735C351.263 0.0385079 351.915 0.0791568 352.527 0.131447C352.826 0.165233 353.185 0.190661 353.532 0.20245C353.878 0.214241 354.185 0.211489 354.388 0.194768C355.313 0.145455 356.795 0.190875 357.559 0.107578C357.831 0.0884197 358.219 0.0857466 358.655 0.100022C359.09 0.114297 359.545 0.144601 359.937 0.185496C359.508 0.198255 359.126 0.21835 358.799 0.245333C357.63 0.332988 358.059 0.47945 359.545 0.692383C361.828 0.680672 364.159 0.683998 366.274 0.643866C367.453 0.607842 368.897 0.619103 370.445 0.676386C371.993 0.733672 373.583 0.834704 375.036 0.968127C375.562 1.01943 376.161 1.05497 376.715 1.06767C377.269 1.08038 377.736 1.06933 378.025 1.03671C378.205 0.99899 378.26 0.951247 378.187 0.897625L376.696 0.803788C376.696 0.803788 376.754 0.753716 376.767 0.742588L378.912 0.734176C380.046 0.733885 381.23 0.748632 382.302 0.744432C383.878 0.716487 385.676 0.732063 387.587 0.790191C389.349 0.849797 391.081 0.894852 392.767 0.924958C394.399 0.955946 395.581 0.857158 397.134 0.84138C398.308 0.829489 399.6 0.842199 400.96 0.879009C403.309 0.944297 405.465 0.944418 407.231 0.87936C409.291 1.22988 410.292 1.28688 412.204 1.19216L413.103 1.1651L413.348 1.24028L414.035 1.22375C415.32 1.20902 416.605 1.19431 417.945 1.18905C419.809 1.22158 421.822 1.3091 423.787 1.44306C424.16 1.46652 424.667 1.54623 424.995 1.60864C425.322 1.67104 426.037 1.8593 426.561 1.98186C425.989 2.07132 425.356 2.15687 424.902 2.25972C424.857 2.27729 424.861 2.29824 424.915 2.32089C424.969 2.34354 425.072 2.36726 425.214 2.39013C425.356 2.413 425.533 2.4344 425.733 2.45259C425.933 2.47079 426.148 2.48529 426.362 2.49491C426.78 2.51565 427.193 2.52948 427.582 2.53582C429.503 2.54676 431.342 2.53863 433.082 2.51151C433.717 2.47324 434.587 2.46961 435.553 2.50118C436.519 2.53276 437.527 2.59774 438.416 2.68582C440.692 2.63294 443.337 2.64856 446.169 2.7316C449.163 2.6811 452.78 2.78322 455.578 2.67257C455.513 2.72821 455.802 2.824 456.204 2.87919C456.841 2.96301 457.563 3.0407 458.338 3.10896L464.254 3.24223C464.475 3.31076 464.752 3.38013 465.08 3.44945C465.305 3.5042 465.696 3.55777 466.171 3.59881C466.646 3.63986 467.168 3.66515 467.625 3.66931C468.803 3.68962 469.79 3.64421 471.193 3.7564C469.032 3.86244 466.116 3.84835 462.967 3.71664C460.007 3.61647 457.161 3.5664 454.533 3.56831C453.666 3.56755 452.525 3.5734 452.254 3.63399C451.654 3.80526 450.085 3.77818 448.253 3.74659C446.815 3.71201 445.501 3.71589 444.42 3.75792C443.338 3.79994 442.52 3.87891 442.033 3.98833C441.91 4.09404 442.205 4.18426 443.468 4.24577L448.718 4.49242C449.491 4.46071 450.226 4.42317 450.917 4.37997C452.082 4.32258 453.521 4.30682 455.121 4.33393C456.721 4.36104 458.439 4.43029 460.142 4.53627C461.012 4.59101 461.882 4.64575 462.513 4.61974C463.067 4.58987 463.577 4.55409 464.039 4.51269C464.133 4.48494 464.17 4.45301 464.15 4.41811C464.484 4.43434 464.82 4.45543 465.144 4.48067C467.736 4.77511 469.744 4.77001 471.567 4.69364C472.061 4.67094 472.437 4.63486 472.937 4.60659C473.437 4.57832 473.613 4.54164 474.068 4.55232C477.691 4.64888 478.735 4.32635 481.789 4.3393C481.938 4.32671 482.03 4.30787 482.057 4.28454C482.084 4.2612 482.046 4.23412 481.944 4.20578C481.729 4.18019 481.479 4.15819 481.218 4.14179C480.958 4.12539 480.694 4.11513 480.453 4.11194C479.047 4.07056 477.806 4.08324 476.941 4.14785C476.329 4.17425 475.68 4.19528 475 4.21083L471.942 3.74376C474.904 3.78658 477.706 3.7863 480.283 3.74293C480.845 3.71857 481.797 3.76054 482.588 3.76851L488.408 3.81217C489.605 3.81579 490.625 3.74257 492.294 3.91325C492.294 3.91325 493.396 3.94077 493.69 3.91746C493.984 3.89416 495.287 3.74922 496.064 3.65479C496.967 3.68171 498.217 3.75436 498.779 3.73C499.761 3.67018 500.611 3.59349 501.314 3.50131L504.83 3.6329C504.826 3.7498 504.698 3.85978 504.447 3.96115C504.173 4.05892 504.182 4.17628 504.474 4.30364C504.766 4.43099 505.333 4.56472 506.127 4.69391L509.599 5.37812C510.166 5.42393 510.769 5.45477 511.329 5.46645C511.888 5.47813 512.376 5.47008 512.725 5.44339C514.219 5.36416 515.892 5.30222 517.386 5.22299C519.313 5.3442 518.818 5.53998 520.218 5.71171L524.756 5.99714C525.448 6.26164 526.153 6.51502 524.048 6.60357C523.63 6.61905 523.912 6.72041 523.53 6.76205C525.166 6.96055 526.965 7.01997 528.624 7.14223C529.278 7.23016 529.825 7.32323 530.238 7.41696C530.692 7.55808 531.612 7.70224 532.8 7.8183C533.988 7.93436 535.348 8.01301 536.586 8.03727C538.664 8.11158 540.792 8.22318 542.873 8.36708C543.585 8.41712 544.315 8.45358 545.017 8.47399C545.718 8.49441 546.373 8.49832 546.939 8.48545C548.953 8.46279 550.658 8.38488 551.942 8.25678C553.213 8.14807 554.925 8.09568 556.924 8.10434C560.343 8.3194 561.032 8.64345 563.101 8.92886L559.527 8.96086C559.398 9.07213 559.634 9.21243 558.169 9.20986C556.705 9.20729 557.448 9.31376 557.923 9.42128C558.09 9.47536 558.417 9.531 558.847 9.57876C559.278 9.62652 559.786 9.66348 560.286 9.68338L563.327 9.821C564.406 9.87337 565.45 9.89573 566.345 9.88563C567.239 9.87553 567.95 9.83336 568.398 9.76375C568.913 9.69764 569.624 9.65293 570.486 9.63235C571.586 9.57842 572.49 9.49822 573.165 9.39478L577.46 9.54549C577.643 9.44154 578.233 9.36866 579.13 9.33916C580.028 9.30966 581.178 9.32534 582.386 9.38358L585.28 9.47608C588.498 9.577 589.204 9.54378 590.147 9.25072L586.287 8.72725C586.848 8.58937 587.39 8.46818 587.932 8.34698C586.97 8.17452 585.688 8.01141 584.214 7.8742C582.838 7.72677 581.424 7.58398 579.976 7.44638C578.405 7.30577 576.746 7.18351 574.796 7.025C574.456 6.97373 573.961 6.88289 573.33 6.79538C572.697 6.71033 572.037 6.62696 571.353 6.5456C571.483 6.43433 571.599 6.33419 571.35 6.20502C572.551 6.24624 573.791 6.31832 574.96 6.41477C576.129 6.51123 577.189 6.62902 578.044 6.75753C578.188 6.78032 578.364 6.80172 578.561 6.8203C578.758 6.83887 578.971 6.85419 579.186 6.8652C581.296 6.94416 582.304 7.10911 583.336 7.31136C584.03 7.41475 584.926 7.50657 585.898 7.57408C587.763 7.69138 589.589 7.84206 591.372 7.97215C591.917 8.01549 592.485 8.05118 593.05 8.07772C594.914 8.1621 596.789 8.2801 598.582 8.42571C599.167 8.46272 599.728 8.5117 600.219 8.56854C600.71 8.62539 601.116 8.68845 601.403 8.75248C600.959 8.82262 600.72 8.91117 600.699 9.01276C600.621 9.07952 601.93 9.21563 602.549 9.31427C603.168 9.41292 601.954 9.36644 601.542 9.37636C599.852 9.39544 599.538 9.43543 600.551 9.65437C600.889 9.72322 601.113 9.79211 601.21 9.85675C601.307 9.92139 601.274 9.98042 601.113 10.0302C600.873 10.236 600.142 10.405 599.64 10.6064C600.42 10.739 601.722 10.8806 601.864 11.0448C601.932 11.0813 602.076 11.1199 602.286 11.1578C602.495 11.1958 602.765 11.2322 603.076 11.2644C603.894 11.3339 604.638 11.417 605.25 11.5073C605.862 11.5975 606.325 11.6926 606.605 11.785C606.696 11.8232 606.917 11.8638 607.223 11.8985C607.529 11.9333 607.897 11.9597 608.254 11.9724C608.681 11.988 609.063 11.9859 609.321 11.9666C609.58 11.9473 609.695 11.9122 609.643 11.8686C609.653 11.7867 609.597 11.7013 609.474 11.6131C609.545 11.5519 609.617 11.4907 609.335 11.3894C610.609 11.4264 611.946 11.5005 613.202 11.6037C614.458 11.7069 615.584 11.8353 616.458 11.9748C617.423 12.1192 618.314 12.2708 619.385 12.4396C619.164 12.6288 619.164 12.6288 621.443 12.9632L633.528 13.1263L636.005 13.3478C638.315 13.5409 638.865 13.5277 640.316 13.4279L641.292 13.334C643.343 13.4631 645.705 13.6117 646.988 13.3699C647.405 13.5275 647.677 13.5804 647.582 13.6043C646.97 13.8369 645.906 14.0342 644.432 14.1885C644.056 14.2246 643.792 14.2796 643.354 14.3118C641.942 14.4934 641.615 14.774 642.439 15.0962C642.848 15.2388 643.441 15.3848 644.201 15.5296C643.089 15.7305 641.616 15.8969 639.821 16.0244C638.298 16.1231 637.043 16.2552 636.094 16.417C635.241 16.5801 633.964 16.7028 632.337 16.7779C631.511 16.8098 630.909 16.8728 630.589 16.9605C630.494 17.1982 630.713 17.4526 631.24 17.7181C631.339 17.7989 631.621 17.8862 632.064 17.9731C632.506 18.06 633.097 18.1441 633.791 18.219C633.791 18.219 634.125 18.2758 634.285 18.3098C634.419 18.5976 633.919 18.8512 632.817 19.0535C632.637 19.1109 632.267 19.1524 631.749 19.1735C631.231 19.1945 630.583 19.1944 629.876 19.173C628.381 19.1388 626.985 19.1345 625.54 19.1153C623.982 19.088 622.61 19.1095 621.568 19.1774C620.526 19.2453 619.853 19.3572 619.618 19.5012C619.603 19.542 619.557 19.581 619.482 19.618C619.438 19.6371 619.414 19.6576 619.411 19.6792L622.73 20.1508L618.975 20.3386C618.754 20.5278 620.557 20.6412 621.46 20.7816L620.902 20.8599C620.183 20.9043 619.214 20.8195 618.338 20.7703L617.467 20.7156L617.363 20.8046C616.822 20.9258 614.846 20.7895 614.075 20.8784C613.304 20.9673 613.854 21.0676 615.009 21.1641C615.812 21.2359 616.674 21.2931 617.531 21.3314C618.388 21.3698 619.216 21.3883 619.955 21.3856C620.396 21.3761 620.762 21.3544 621.03 21.3219C622.589 21.1833 624.311 21.0641 626.183 20.9652C627.619 20.8765 629.416 20.8387 631.45 20.8546C632.046 20.8479 632.766 20.8689 633.482 20.914C634.198 20.959 634.865 21.0252 635.365 21.1009L636.418 21.1134C636.418 21.1134 636.994 21.1915 636.913 21.2043C636.512 21.4355 636.978 21.7182 638.241 22.0104L637.142 22.0369C635.573 22.0098 636.568 22.1859 636.333 22.2726C635.218 22.2562 633.769 22.183 633.24 22.293L632.449 22.2851L632.76 22.3046L633.136 22.2685L634.612 22.4331C633.912 22.4607 633.406 22.4945 632.788 22.5094C632.447 22.5224 632.175 22.5452 631.989 22.5767C631.803 22.6081 631.708 22.6474 631.707 22.6923C631.709 22.7613 631.525 22.8194 631.173 22.861C630.82 22.9026 630.312 22.9263 629.695 22.93C628.959 22.9315 628.538 23.0065 628.107 23.0331L629.981 23.4854C629.981 23.4854 629.049 23.4268 629.556 23.5065L629.621 23.4509L630.757 23.5641C631.575 23.6633 632.147 23.6874 632.63 23.6163C633.114 23.5452 633.004 23.6397 633.235 23.6125C633.151 23.6849 632.625 23.7354 632.174 23.7787C631.653 23.8127 631.065 23.8377 630.419 23.8534C631.583 24.1714 631.638 24.1809 629.939 24.2651C628.239 24.3493 628.826 24.4758 627.403 24.4938C625.981 24.5118 627.598 24.727 628.55 24.769C629.256 24.7966 629.975 24.8395 630.659 24.8949C631.343 24.9503 631.975 25.0168 632.512 25.0899L632.227 25.3347C631.808 25.3144 631.389 25.288 630.984 25.2565C629.606 25.122 628.353 24.9954 627.127 25.0736L627.711 25.2596L623.433 25.1518C623.544 25.2912 624.196 25.4499 625.252 25.5946C625.093 25.6741 624.995 25.7577 624.959 25.845C624.888 25.9062 624.466 25.8677 624.191 25.8743C623.212 25.8845 622.408 25.926 621.85 25.995C621.293 26.0641 620.998 26.1586 620.994 26.2703C620.883 26.3649 622.389 26.5612 623.331 26.5547C625.682 26.5736 628.224 26.6463 630.82 26.769C632.403 26.785 632.626 26.5363 635.23 26.7061C635.282 26.8209 634.948 26.9139 634.28 26.9709C633.612 27.028 632.645 27.0461 631.525 27.0224C632.162 27.2774 635.687 27.3439 635.843 27.6105C634.965 27.5917 634.026 27.5474 633.12 27.482C632.213 27.4166 631.37 27.3323 630.674 27.2376C630.523 27.2142 630.335 27.1927 630.125 27.175C629.915 27.1573 629.692 27.144 629.474 27.1362C629.257 27.1285 629.053 27.1267 628.882 27.1309C628.711 27.1351 628.578 27.1452 628.495 27.1603C628.983 27.2566 629.52 27.3681 630.133 27.4723C630.745 27.5765 630.893 27.6216 631.334 27.6434C634.628 27.8506 636.195 28.2239 639.045 28.4689C639.79 28.5158 639.883 28.6649 639.236 28.6481C638.62 28.6312 638.062 28.6334 637.625 28.6545C637.188 28.6755 636.889 28.7145 636.762 28.7672C636.284 28.8286 635.688 28.8775 634.991 28.9126C637.914 29.2956 641.399 29.634 645.118 29.896C645.823 29.9478 646.558 29.9794 647.215 29.9861C649.292 29.9865 651.495 30.0169 653.781 30.0767C654.592 30.093 655.341 30.0915 655.988 30.0722C658.11 30.0265 659.795 30.1265 661.334 30.4085L663.881 30.8554C663.797 30.9277 663.369 31.0083 663.04 31.119L665.03 31.3576L680.216 30.808L683.264 31.3402L687.636 31.3106C687.971 31.3259 688.307 31.3471 688.63 31.3731C689.514 31.5303 690.206 31.6813 691.165 31.8312C692.124 31.9811 693.837 31.9993 695.032 32.176C696.227 32.3527 697.424 32.3563 698.903 32.4613C699.042 32.598 698.898 32.7212 698.481 32.8229C698.345 32.9397 697.593 33.0119 697.463 33.1232C697.478 33.2356 697.198 33.3311 696.651 33.401C696.103 33.4708 695.305 33.5128 694.328 33.5231C691.592 33.7626 688.293 33.9331 684.53 34.0295C684.199 34.0365 683.925 34.0527 683.725 34.077C683.524 34.1014 683.401 34.1334 683.364 34.1711C683.369 34.2803 683.118 34.3746 682.629 34.4472C682.141 34.5198 681.426 34.5688 680.539 34.5906C680.303 34.595 680.125 34.6087 680.026 34.63C679.69 34.6438 679.444 34.6701 679.314 34.7064C679.184 34.7427 679.174 34.7878 679.284 34.8374C679.394 34.8869 679.62 34.9392 679.942 34.9892C680.263 35.0392 680.669 35.0852 681.119 35.1228C681.773 35.1833 682.44 35.2412 683.118 35.2963C683.079 35.3297 682.406 35.3351 682.504 35.3652C682.77 35.4612 682.832 35.5511 682.684 35.6279C682.537 35.7046 682.184 35.7661 681.655 35.8074L685.284 36.5852C687.487 36.6929 689.648 36.8756 691.357 37.0986C691.359 37.1351 691.261 37.1657 691.072 37.1873C690.882 37.209 690.609 37.2209 690.279 37.2219C689.393 37.2378 688.556 37.2687 687.602 37.2863C687.018 37.2995 686.533 37.3284 686.173 37.3714C685.814 37.4144 685.588 37.4706 685.508 37.5368L687.639 37.8262C686.956 37.8967 686.45 37.9305 685.999 37.9738C686.254 38.0647 686.694 38.1588 687.283 38.2487C687.872 38.3385 688.596 38.4219 689.397 38.4922C689.612 38.5066 689.831 38.5172 690.042 38.5233C690.253 38.5294 690.45 38.5308 690.624 38.5275C692.274 38.4283 694.204 38.6035 696.079 38.7692C697.954 38.9349 698.972 39.0348 700.356 39.1636L703.005 39.1809C703.675 39.242 704.273 39.3137 704.751 39.3904C705.23 39.4672 705.574 39.5468 705.758 39.6229C705.615 39.7453 704.359 39.6782 703.611 39.6908C701.835 39.767 699.5 39.7508 696.993 39.6448C696.371 39.6057 695.734 39.6373 695.129 39.641C693.824 39.6562 692.57 39.681 691.373 39.7153C690.584 39.7471 689.847 39.7866 689.167 39.8333C688.985 39.9891 691.847 40.1094 690.223 40.1864C690.782 40.2215 690.992 40.2706 691.279 40.2528C693.122 40.354 694.937 40.404 696.515 40.3971C699.543 40.3756 702.981 40.4466 706.548 40.6042C710.398 40.7675 714.092 40.8361 717.323 40.8043C718.554 40.8024 719.93 40.8359 721.346 40.902C723.018 40.9937 724.678 41.0514 726.219 41.0712C726.729 41.0719 727.298 41.0876 727.878 41.1168C728.458 41.146 729.034 41.1881 729.559 41.2395C729.513 41.2785 729.013 41.3068 729.125 41.3257C730.719 41.6171 731.366 41.9206 733.821 42.2183C735.499 42.3239 737.426 42.4451 738.523 42.3051C739.621 42.1651 739.227 42.0448 737.043 41.6865C737.517 41.6813 738.088 41.6981 738.656 41.7338C739.224 41.7695 739.753 41.822 740.151 41.882L742.04 42.1501L743.742 42.4065C743.593 42.5345 743.476 42.6346 743.353 42.7403C743.158 42.8526 743.372 42.9893 743.964 43.1311C744.322 43.2086 744.633 43.2861 744.895 43.3629C745.959 43.67 746.267 43.9603 745.785 44.2012C744.861 44.5475 743.573 44.8662 741.938 45.1536C740.211 45.4331 739.266 45.7857 737.843 46.0903C737.117 46.229 736.235 46.3534 735.207 46.462C733.258 46.7036 731.121 46.9335 729.165 47.1807C727.208 47.4279 724.999 47.6055 722.827 47.8092C719.592 48.051 716.095 48.2598 712.356 48.4345C710.043 48.5876 707.667 48.7367 705.527 48.9126C702.999 49.1109 700.03 49.2533 696.693 49.3363C693.745 49.4356 691.112 49.5825 688.843 49.7741C688.605 49.7948 688.417 49.8212 688.284 49.8524C687.876 50.0478 686.731 50.1856 685.025 50.2446C685.128 50.3018 685.261 50.3599 685.422 50.4188C685.659 50.489 685.708 50.5547 685.563 50.6073C685.419 50.66 685.087 50.6972 684.61 50.7142C683.245 50.7626 682.111 50.8448 681.258 50.9571C680.944 50.9853 680.75 51.0264 680.691 51.0767C680.632 51.1271 680.711 51.1854 680.92 51.2464C681.105 51.3093 681.119 51.3671 680.959 51.4124C680.799 51.4577 680.473 51.4884 680.023 51.5005C678.868 51.56 677.631 51.6079 676.32 51.6438C673.53 51.723 670.286 51.7221 666.782 51.641C666.409 51.6176 666.034 51.6537 665.599 51.6263C663.121 51.5355 660.82 51.5214 658.974 51.5858C656.81 51.6109 654.547 51.6059 652.265 51.6176C648.968 51.6097 645.927 51.6575 643.226 51.7596C640.138 51.661 638.403 51.8325 635.798 51.8358C633.392 51.8534 631.111 51.8957 628.978 51.9622C625.539 52.0505 622.114 52.1276 618.724 52.2308C615.544 52.2801 612.616 52.3742 609.99 52.5115C608.983 52.5736 607.161 52.4769 606.476 52.607C605.79 52.737 604.407 52.7217 603.289 52.7648L599.762 52.8714C599.156 52.8968 598.489 52.9128 597.771 52.9194C594.492 52.9281 592.221 53.1017 589.177 53.1372L588.867 53.1176C583.462 53.3758 577.278 53.5175 570.495 53.5385C566.533 53.6177 562.2 53.6139 557.996 53.6719C556.993 53.788 554.625 53.645 553.367 53.751C552.109 53.857 550.055 53.7875 548.434 53.8049C546.812 53.8224 545.227 53.866 543.494 53.8645C541.989 53.865 540.718 53.9123 539.797 54.0022C537.695 54.1507 535.132 54.2381 532.224 54.2603C528.376 54.2989 524.737 54.3865 520.823 54.3673C520.879 54.4755 520.639 54.5676 520.128 54.6341C519.616 54.7006 518.852 54.7391 517.913 54.7455C513.728 54.7869 509.933 54.8945 505.693 54.9263L504.559 54.9267L491.876 54.9888C488.459 55.0008 485.167 55.0206 481.682 55.0343C480.377 54.9522 480.345 55.0935 479.442 55.0666C479.19 54.997 478.892 54.9663 478.448 55.004L478.35 55.0875L463.877 55.1982C458.21 55.2791 452.249 55.3034 446.045 55.2708C444.573 55.279 443.199 55.3067 441.945 55.3533C440.783 55.3704 439.571 55.3779 438.316 55.3759C436.62 55.3549 434.962 55.3443 433.35 55.3441C429.109 55.376 424.659 55.3588 420.016 55.3354C415.373 55.3121 411.855 55.3536 407.722 55.3504C404.924 55.3475 402.138 55.3335 399.24 55.3005C397.857 55.2852 396.153 55.2019 394.721 55.1715C393.288 55.1411 392.821 55.1415 392.632 55.1894C392.008 55.3233 390.441 55.2367 389.189 55.2236C386.746 55.2013 386.399 55.1556 385.736 54.8093L388.733 54.6993C389.468 54.6638 390.392 54.6575 391.416 54.6811C392.44 54.7048 393.53 54.7575 394.581 54.8342C394.994 54.8671 395.426 54.8931 395.852 54.9106C396.278 54.9282 396.69 54.9371 397.063 54.9366C400.087 54.9179 403.069 54.8785 405.975 54.8463L406.4 54.8253L406.427 54.5164C406.042 54.4861 405.644 54.461 405.246 54.4421L390.668 54.2417C387.323 54.1925 383.85 54.0815 380.567 54.0362C377.283 53.991 375.514 53.9633 372.967 53.9165C371.892 53.8898 370.796 53.8548 369.687 53.8117C369.751 53.7819 369.788 53.7503 369.797 53.7171C369.855 53.667 369.933 53.6002 369.462 53.5467C368.948 53.4711 368.261 53.4066 367.538 53.3659C366.859 53.3391 366.201 53.3239 365.589 53.321C362.632 53.2951 359.255 53.132 356.178 52.8663L355.104 53.0436C350.483 52.944 345.794 52.8461 340.967 52.7515C340.001 52.7257 338.986 52.6762 338 52.6067C336.943 52.5402 335.971 52.4014 334.859 52.3255C333.76 52.2708 332.668 52.2282 331.605 52.1984C331.893 52.1527 332.272 52.1163 332.732 52.0901C333.184 52.0809 333.513 52.0524 333.672 52.0088C333.831 51.9651 333.811 51.9085 333.616 51.8471C333.272 51.7419 333.12 51.6428 333.869 51.6302C334.561 51.6061 335.055 51.5542 335.295 51.4804C335.535 51.4066 335.51 51.314 335.222 51.2136C335.096 51.1549 335.007 51.0975 334.956 51.0416L334.645 51.0221C333.62 50.8142 331.573 50.7392 330.103 50.5691C329.409 50.5198 328.692 50.4914 328.062 50.4885C326.437 50.452 324.854 50.436 323.173 50.39C322.37 50.3688 321.531 50.3302 320.704 50.2764C319.523 50.2021 319.398 50.1943 318.713 49.9243C319.778 49.929 320.622 49.8886 321.102 49.81C321.583 49.7315 321.671 49.6195 321.351 49.493C320.472 49.2168 319.545 48.9255 315.57 48.7293C316.866 48.7196 318.114 48.7004 319.307 48.6717C319.654 48.6655 319.914 48.6452 320.052 48.6135C320.19 48.5818 320.199 48.5403 320.079 48.4944C319.958 48.4485 319.713 48.4004 319.377 48.3567C319.041 48.3129 318.63 48.2756 318.198 48.2496C316.101 48.0933 313.912 47.9888 311.879 47.9476C310.165 47.9294 308.619 47.9396 306.618 47.9392L304.256 47.7906C304.295 47.7572 303.948 47.7115 304.036 47.6931C304.636 47.5219 305.298 47.3545 305.98 47.1705C304.891 47.0711 303.948 46.9511 303.258 46.8243C302.568 46.6975 302.16 46.5689 302.08 46.4533C302.021 46.4185 302.036 46.3867 302.125 46.3603C302.213 46.3339 302.373 46.3134 302.592 46.3004C303.214 46.2781 303.694 46.2354 303.995 46.1756C304.296 46.1159 304.41 46.0407 304.328 45.9558L302.492 45.6432C296.961 45.4201 291.53 45.2607 286.3 45.168L281.578 45.0979C281.008 45.0143 281.184 44.9776 281.72 44.9755C282.257 44.9734 283.764 44.9966 284.817 45.0091C285.726 45.0255 286.534 45.0147 287.161 44.9778C287.789 44.9409 288.215 44.8791 288.399 44.7984L286.813 44.4419C286.891 44.3751 287.001 44.2805 287.861 44.2869C288.449 44.2791 288.882 44.2455 289.09 44.1915C289.299 44.1374 289.27 44.066 289.01 43.9889C288.97 43.933 289.03 43.8822 289.185 43.8386C290.457 43.835 291.722 43.837 292.876 43.82C293.414 43.8144 293.868 43.7937 294.207 43.7594C294.546 43.7251 294.763 43.678 294.843 43.6213C294.885 43.5659 294.783 43.5028 294.547 43.4371C294.311 43.3714 293.946 43.3049 293.483 43.2431C291.674 43.1665 290.02 43.1655 288.882 43.2403C288.477 43.2989 287.826 43.331 287.014 43.3322C286.203 43.3334 285.27 43.3037 284.338 43.2471C283.27 43.1818 282.205 43.1531 281.334 43.1661C280.463 43.1792 279.842 43.2332 279.584 43.3183C278.489 43.2852 277.517 43.2599 276.559 43.2235C275.429 43.1776 274.36 43.1641 273.469 43.1844C272.043 43.1988 270.507 43.1904 268.895 43.1594C264.248 43.0821 259.594 43.0103 255.095 42.9781C253.905 42.9689 252.875 42.9937 251.698 42.9734C250.521 42.9531 249.589 43.008 248.117 42.8975C247.837 42.8803 247.554 42.8693 247.293 42.8652C247.031 42.8612 246.797 42.8643 246.61 42.8743C244.024 42.9617 240.993 42.9741 237.694 42.9106C233.175 42.8951 228.489 42.8512 223.964 42.8412C222.637 42.8498 221.382 42.8727 220.214 42.9099C219.325 42.9323 218.394 42.9475 217.426 42.9554C216.683 42.9625 215.974 42.9417 216.099 43.0631C216.224 43.1844 215.112 43.1085 214.471 43.0861C212.269 43.0272 210.018 42.9476 207.743 42.848C205.502 42.7398 203.307 42.6768 201.288 42.6628C199.829 42.6547 198.325 42.6855 196.451 42.5198C196.522 42.4586 196.593 42.3974 197.001 42.3335C195.472 42.1577 193.728 42.0064 191.912 41.8921C190.096 41.7779 188.261 41.704 186.559 41.6766L184.212 41.3438C183.634 41.3047 183.044 41.2763 182.478 41.2602C181.912 41.2441 181.381 41.2406 180.919 41.2501C180.561 41.2549 180.126 41.2426 179.692 41.2153C179.258 41.188 178.855 41.1476 178.557 41.1015C178.111 41.0429 177.567 40.9924 176.992 40.9562C176.417 40.92 175.837 40.8999 175.325 40.8982C173.712 40.862 171.99 40.7784 170.336 40.6561C169.907 40.5843 169.638 40.5102 169.563 40.4428C169.487 40.3755 169.608 40.3178 169.911 40.277C170.4 40.2049 170.674 40.113 170.718 40.0069C170.761 39.9009 170.573 39.7828 170.164 39.6599C169.955 39.5844 169.885 39.513 169.959 39.4499C170.033 39.3868 170.248 39.3333 170.593 39.2927C171.88 39.1049 171.535 38.9996 169.43 38.6881C169.088 38.6361 168.676 38.5876 168.22 38.5455C167.764 38.5034 167.273 38.4688 166.78 38.4437C165.622 38.3929 164.48 38.3551 163.375 38.331C162.754 38.2919 162.116 38.3235 161.4 38.3083C157.819 38.2323 157.295 38.1098 156.135 37.8457L155.29 37.6552C153.723 37.5009 152.008 37.3727 150.271 37.2799C148.533 37.1871 146.815 37.1321 145.241 37.1186C144.616 37.1176 143.896 37.0913 143.194 37.0436C140.907 36.8978 138.592 36.7969 136.4 36.7476C135.035 36.7198 133.563 36.648 132.161 36.5408C130.76 36.4336 129.488 36.2954 128.499 36.1431C127.611 36.0058 126.448 35.8826 125.174 35.7906C123.682 35.6967 123.544 35.5865 124.377 35.5016C125.21 35.4166 126.605 35.3073 127.844 35.218C128.275 35.1877 128.542 35.1383 128.615 35.0754C128.688 35.0125 128.565 34.9386 128.259 34.8619C128.063 34.7307 128.029 34.6061 128.158 34.4913C128.227 34.4435 128.179 34.3888 128.018 34.3308C127.857 34.2728 127.586 34.2128 127.224 34.1549C126.861 34.097 126.416 34.0426 125.917 33.9952C125.419 33.9479 124.879 33.9087 124.334 33.8804C122.034 33.7358 119.796 33.595 117.451 33.4893C116.468 33.4395 115.487 33.3777 114.53 33.3055C112.571 33.127 110.476 32.979 108.366 32.87C107.365 32.8213 106.385 32.7361 105.641 32.6329C103.291 32.3548 101.126 32.0624 99.1853 31.761C98.7174 31.6675 98.1053 31.5763 97.3872 31.4931C96.6692 31.4099 95.8606 31.3365 95.0124 31.2775C94.3287 31.2345 93.7722 31.1398 93.2452 31.0767C92.8623 30.9308 92.8213 30.7958 93.1263 30.6845C93.4313 30.5731 94.0723 30.4889 94.989 30.44C95.8582 30.3812 96.6717 30.3129 97.4231 30.2407C98.3289 30.1824 99.4057 30.1473 100.613 30.1369C102.044 30.1055 103.102 30.016 103.649 29.8799C99.7329 29.6336 96.0091 29.2799 92.5767 29.3626L89.9687 29.1388C90.0726 29.0498 90.1635 28.9719 90.2479 28.8995C90.8681 28.7679 91.0618 28.6019 90.8127 28.4155C90.6072 28.3254 90.6258 28.2433 90.8664 28.1777C91.1069 28.1121 91.5611 28.0652 92.1828 28.0419C95.8656 27.8018 100.125 27.6397 103.578 27.3673C104.661 27.3161 105.929 27.2929 107.328 27.2986C108.681 27.2822 108.625 27.1592 107.067 27.0074C106.193 26.9282 105.302 26.8522 104.397 26.7798C100.408 26.7677 98.783 27.1313 94.2308 27.0301L92.1209 26.551C91.5504 26.5436 90.9966 26.5406 90.4631 26.5422L82.8303 26.7369C82.1946 26.7467 81.6996 26.7799 81.4019 26.833C81.1041 26.8861 81.0153 26.9567 81.1457 27.037C81.1974 27.1352 81.0922 27.2253 80.8341 27.3041C80.6676 27.3592 80.7741 27.4324 81.1302 27.5078C81.9327 27.6777 80.903 27.7026 80.2527 27.7452C80.0865 27.7494 79.8948 27.749 79.6888 27.7439C79.4828 27.7389 79.2666 27.7294 79.0526 27.7159C78.8387 27.7025 78.6314 27.6853 78.4426 27.6655C78.2538 27.6457 78.0874 27.6237 77.953 27.6006C76.8072 27.4389 75.8051 27.2684 74.6789 27.0901C75.4785 26.9194 74.5377 26.6392 75.7854 26.4848C75.9249 26.454 75.9807 26.4164 75.9495 26.3744C75.9182 26.3324 75.8004 26.2868 75.6034 26.2405C75.0953 26.1209 74.8534 26.0044 74.9019 25.9026C74.9504 25.8008 75.2876 25.7173 75.8796 25.6607L75.9511 25.5995C74.3897 25.3937 74.8034 25.2108 74.1901 24.993L72.6882 24.8508C68.9513 24.5082 68.9448 24.5138 65.7276 24.5264C65.0791 24.396 65.903 24.3761 66.5209 24.3613L71.6954 24.215C75.0787 24.1173 78.5602 24.0496 82.3396 24.0127C86.119 23.9757 90.3324 23.8526 94.2388 23.7639C94.4364 23.757 94.5875 23.7435 94.6794 23.7243C94.7714 23.7052 94.8016 23.681 94.7676 23.6539C94.6123 23.6245 94.409 23.5962 94.1728 23.571C93.9366 23.5458 93.6735 23.5243 93.4028 23.5083C92.1597 23.4301 90.8842 23.3797 89.5594 23.3143L87.0898 23.2007L86.3301 23.0514C85.8356 22.9606 85.4978 22.8498 84.84 22.7845C84.2979 22.7358 83.7096 22.6989 83.136 22.6775C82.5625 22.6561 82.0249 22.6511 81.5793 22.663C80.3436 22.6927 79.2257 22.7359 78.0457 22.7751C76.8657 22.8144 76.2154 22.8571 75.1922 22.8763C73.1132 22.8851 71.1041 22.9082 69.1735 22.9456C67.5473 23.0341 66.0432 23.1389 64.6706 23.2595C63.8144 23.3072 63.0137 23.3643 61.5516 23.3022C60.858 23.2459 60.2598 23.1719 59.8629 23.0933C59.466 23.0148 59.2962 22.9368 59.3835 22.8732C59.4619 22.8233 59.6841 22.7838 60.0288 22.7585C60.3736 22.7332 60.8296 22.7228 61.3538 22.7284C62.8214 22.7192 64.1785 22.6883 65.3977 22.6364C67.0948 22.5423 69.1607 22.5017 71.4748 22.517C72.2597 22.5306 72.7857 22.4801 73.4722 22.4635C74.1587 22.447 74.7402 22.4059 75.5056 22.4362C77.8833 22.5141 79.0234 22.3947 80.4482 22.3171C80.9306 22.2827 81.2294 22.2271 81.3119 22.1565C81.3944 22.0858 81.2573 22.0028 80.9157 21.9165C80.258 21.7448 79.4535 21.5721 78.5147 21.4012C78.0316 21.3172 77.4125 21.2374 76.7063 21.1681C76 21.0988 75.2255 21.0419 74.4438 21.0018C73.9759 20.8966 73.7263 20.7932 73.7175 20.7009C73.7088 20.6086 73.9412 20.5303 74.3936 20.4731C75.5467 20.3426 76.5689 20.2098 79.1525 20.2828C80.3672 20.3106 81.5104 20.316 82.5366 20.2986C84.8128 20.2748 87.4384 20.3269 90.166 20.4501C90.8717 20.4816 91.5654 20.5032 92.2265 20.514C96.9419 20.5897 101.435 20.6275 105.94 20.6541C108.327 20.6669 110.734 20.663 113.226 20.7003C119.069 20.7813 124.388 20.7397 130.029 20.766C132.983 20.7796 135.627 20.7251 137.822 20.6053C138.25 20.5652 138.617 20.5184 138.92 20.4654C137.465 20.3263 135.867 20.2161 134.278 20.1455C132.69 20.0749 131.165 20.0461 129.849 20.062C129.126 20.1009 128.191 20.1081 127.149 20.0826C126.107 20.0571 124.998 20 123.947 19.9176L127.003 19.871C129.03 19.8492 131.106 19.8425 133.078 19.8112C136.21 19.7574 139.112 19.6713 142.355 19.6364C144.974 19.6043 147.317 19.5224 149.311 19.3932C150.752 19.2989 152.397 19.232 154.214 19.194C155.505 19.1737 155.505 19.1737 156.331 18.9808C155.676 18.8559 154.829 18.8385 154.031 18.8361C149.248 18.7576 144.696 18.7438 140.468 18.7951C138.335 18.7996 136.443 18.8525 134.882 18.9513C134.5 18.9929 133.522 18.9732 132.737 18.9597C130.277 18.9391 127.925 18.9451 125.711 18.9775C122.649 19.0316 119.239 19.0188 115.614 18.9395C114.926 18.8425 115.717 18.8505 115.756 18.8171C118.565 18.7549 121.317 18.6832 124.181 18.6305C124.964 18.6117 125.8 18.6023 126.682 18.6026C129.972 18.6354 132.714 18.5447 134.523 18.3435C134.614 18.2656 135.804 18.2748 136.33 18.2243C136.589 18.1805 136.762 18.129 136.842 18.0713C136.076 17.9276 135.21 17.9268 134.543 17.9267C132.607 17.9427 130.745 17.9731 128.966 18.0177C127.311 18.0602 125.48 18.0716 123.522 18.0515C122.076 18.0323 120.841 18.062 119.383 18.0539C118.591 18.0368 117.773 18.0093 116.943 17.9721C117.867 17.8719 119.123 17.8103 120.623 17.7915C121.76 17.7317 123.182 17.7137 123.364 17.5579C122.827 17.4464 122.228 17.4446 121.748 17.4562C120.748 17.4558 119.781 17.4628 118.854 17.4772C116.889 17.5089 114.761 17.5093 112.515 17.4785C111.332 17.467 110.21 17.4705 109.167 17.4889C106.803 17.5134 104.537 17.5679 102.373 17.593C97.9398 17.6187 93.8962 17.7107 89.6363 17.7593C88.6882 17.7713 87.8384 17.8134 86.5887 17.7407C85.3391 17.6681 85.2835 17.6586 85.136 17.6135C84.7863 17.5382 84.6804 17.4653 84.8401 17.4098C85.0879 17.3579 85.5708 17.329 86.2027 17.3283C90.0107 17.2458 93.6227 17.1299 97.0158 16.9813C98.5091 16.9516 99.8174 16.8909 100.895 16.8013C101.75 16.7397 102.764 16.6989 103.905 16.6802C105.566 16.6356 107.296 16.6029 109.09 16.5823C109.925 16.5712 110.635 16.5382 111.178 16.4852C111.721 16.4322 112.087 16.3603 112.253 16.2736L110.053 15.986C109.708 15.9726 109.365 15.961 109.026 15.9512L90.7702 16.1584L88.9622 16.1641C86.9807 16.147 86.4964 16.1046 84.6168 15.7714C88.9064 15.6929 92.2785 15.4644 94.3972 15.1086C93.888 15.0703 93.366 15.0375 92.8433 15.0109C89.4152 14.9267 86.1746 14.9043 83.2463 14.9446C81.5069 14.9487 79.7184 14.9377 77.9233 14.9322C78.4483 14.7682 80.4595 14.8171 81.7703 14.7801C84.9022 14.7222 87.6718 14.6027 89.9904 14.4253C90.7898 14.3561 91.7899 14.3119 92.9449 14.2947C94.1009 14.2887 95.0664 14.2468 95.7576 14.1727C96.4488 14.0986 96.8446 13.9944 96.9106 13.8693C97.0194 13.756 97.2542 13.6507 97.611 13.555C96.9796 13.4193 95.9771 13.2892 94.7915 13.1894C93.6059 13.0895 92.3189 13.0267 91.1717 13.0126C88.7229 12.9567 86.183 12.8652 83.6166 12.7404C82.3382 12.6774 81.0846 12.6413 79.9373 12.6343C78.9256 12.629 77.7755 12.5835 76.6627 12.5049C75.5498 12.4263 74.5352 12.3188 73.7737 12.1988C72.7457 12.0506 71.7863 11.9006 70.827 11.7507C69.8678 11.6008 68.7546 11.4113 67.6348 11.2274C66.6475 11.1986 65.6861 11.1802 64.7636 11.1722C64.0459 11.1789 63.2085 11.1589 62.3501 11.1144C61.4917 11.0699 60.6481 11.0029 59.919 10.9212C60.3467 10.8406 60.8301 10.7695 61.3393 10.6761C60.6403 10.5528 60.1335 10.4271 59.8497 10.3065C59.5659 10.186 59.5111 10.0732 59.6887 9.97508C59.7926 9.88606 59.0327 9.73674 58.7701 9.6187C58.4321 9.51694 58.3686 9.42197 58.588 9.34625C58.8073 9.27053 59.2992 9.21759 59.9993 9.19438C60.8675 9.15152 61.5742 9.08699 62.0902 9.00342C62.2609 8.98173 62.3478 8.95202 62.3429 8.91701C62.338 8.882 62.2416 8.84282 62.0624 8.80303C61.8831 8.76324 61.6268 8.72412 61.317 8.68925C61.0071 8.65438 60.6535 8.62488 60.2885 8.60343C59.1704 8.54263 58.06 8.50322 57.0211 8.48747C55.2313 8.45848 53.5178 8.44028 51.8808 8.43285C50.0703 8.42167 48.0561 8.35265 46.0428 8.23281C44.2402 8.11942 42.6242 8.01776 41.7428 7.80107C40.8614 7.58438 39.4522 7.59129 38.3686 7.43354C38.9773 7.29135 40.0592 7.19255 41.5051 7.14712C42.4512 7.1309 43.2411 7.08834 43.8238 7.02216C44.4066 6.95598 44.7694 6.86763 44.8892 6.76281L41.5994 6.32295C38.9721 6.11588 37.5185 6.27526 34.6798 6.19223L37.6047 6.02986C37.6635 6.01381 37.6855 5.99497 37.6696 5.97422C37.3856 5.64582 36.9338 5.57559 33.9438 5.39347L32.2657 5.2879L29.6096 5.16262C29.1842 5.09532 28.89 5.02514 28.7563 4.95908C28.6226 4.89303 28.6542 4.83343 28.8478 4.78625C29.237 4.7069 29.3553 4.60549 29.1919 4.49138C28.9343 4.41578 28.9131 4.3461 29.1318 4.29441C29.3506 4.24272 29.7955 4.21229 30.3895 4.2084C30.8635 4.20239 30.8987 4.11502 31.1566 4.06555C31.4128 3.99737 31.8514 3.94505 32.4424 3.91216C33.0334 3.87926 33.7629 3.86655 34.5814 3.87491C36.9947 3.88173 39.2618 3.85614 41.3424 3.79858L40.9694 3.77512C43.138 3.82565 45.1655 3.83178 46.953 3.79321C48.7443 3.74465 51.0432 3.7758 52.9459 3.74619C54.4948 3.75298 55.6741 3.68578 56.2335 3.55886C56.7752 3.43767 58.7437 3.46595 60.2512 3.48912C61.1442 3.5041 62.0073 3.51045 62.8312 3.50809C63.9371 3.48066 65.3199 3.50652 66.7489 3.58135C67.1777 3.60435 67.6 3.61653 67.9753 3.6167C71.6081 3.64815 75.2344 3.68517 78.818 3.70158C79.6452 3.69213 80.6152 3.71378 81.614 3.764C82.0339 3.78581 82.4425 3.79484 82.7849 3.78989C88.4475 3.74001 94.8373 3.86727 100.389 3.79844C101.061 3.78219 101.806 3.77881 102.602 3.78839C104.39 3.82882 105.943 3.8028 107.025 3.71429C107.609 3.66721 108.357 3.64127 109.223 3.63812C110.088 3.63497 111.051 3.65467 112.051 3.69598C113.714 3.75069 115.251 3.75661 116.501 3.71315C118.936 3.673 121.497 3.65649 124.164 3.66375C124.981 3.67078 125.7 3.65517 126.263 3.61815C126.827 3.58113 127.221 3.52367 127.416 3.45025C126.761 3.32544 126.044 3.31025 125.364 3.32122C122.729 3.29278 120.1 3.25878 117.513 3.24537C115.198 3.20709 112.977 3.19538 110.882 3.21043C109.842 3.22741 108.544 3.1887 107.272 3.10274C105.712 2.99388 104.106 2.9398 102.778 2.95143C101.793 2.95432 100.754 2.94495 99.6748 2.92344C98.9842 2.89751 98.2763 2.85298 97.6237 2.79442C97.3648 2.76898 97.0829 2.74759 96.7962 2.73162C96.5096 2.71566 96.2245 2.70547 95.9589 2.70169C95.6933 2.69791 95.4531 2.70062 95.2539 2.70967C95.0546 2.71872 94.9007 2.73391 94.8017 2.75425C93.8027 2.9243 91.5687 2.83752 89.6558 2.81871C86.7892 2.53088 84.6557 2.70124 81.9765 2.53867C81.7646 2.5279 81.5558 2.52137 81.363 2.5195C81.1702 2.51764 80.9973 2.52048 80.8548 2.52783C75.67 2.62568 69.6271 2.54414 64.1835 2.57793C63.5831 2.58287 62.8863 2.56593 62.1723 2.52904C57.5056 2.2849 53.0187 2.21559 49.589 2.33467C49.1717 2.34539 48.697 2.34585 48.1864 2.33601C45.8414 2.23898 43.599 2.20029 41.6462 2.22318C38.5857 2.21579 35.6432 2.22179 32.5336 2.19935C30.39 2.16744 28.5095 2.20154 27.0806 2.29825C27.0351 2.33719 26.0832 2.29523 25.3541 2.29116C24.9347 2.19312 24.5712 2.10456 24.1388 2.01764C23.7524 1.91011 23.1734 1.8013 22.4414 1.69858C21.7095 1.59587 20.8416 1.50165 19.8964 1.42231C18.2803 1.32065 18.1187 1.17312 19.2495 1.11885C22.1642 0.939283 25.8293 0.86579 29.9754 0.903761C33.4412 0.906794 36.9693 0.913747 40.4843 0.931818C42.5345 0.947323 44.6958 0.981761 46.6903 0.987791C47.3634 1.00104 48.0547 1.02057 48.7573 1.04615C49.6193 1.08326 50.4563 1.10348 51.2231 1.10572C53.6854 1.07447 56.4333 1.1017 59.3358 1.18609C60.399 1.20449 61.4198 1.21069 62.3832 1.2046C64.6624 1.18169 67.1333 1.19855 69.7304 1.25473C71.3447 1.2864 72.9098 1.30297 74.4098 1.30424C74.9395 1.3077 75.3709 1.28109 75.8811 1.30124C80.3721 1.5121 83.5522 1.3598 87.5941 1.44088C89.5586 1.46349 91.4354 1.46355 93.1982 1.44107C96.6385 1.44216 100.175 1.46527 103.792 1.51033C108.577 1.58435 113.01 1.55866 117.578 1.58922C118.48 1.59564 119.35 1.59455 120.184 1.58594C124.238 1.52906 128.641 1.54113 133.285 1.62183C134.34 1.63349 135.287 1.61923 136.068 1.57996C136.849 1.54069 137.446 1.47725 137.822 1.3936C137.981 1.33619 137.878 1.26163 137.532 1.18429C136.959 1.08553 136.311 0.988756 135.601 0.895576L109.745 0.582898C108.659 0.566571 107.6 0.557782 106.573 0.556567C103.554 0.553847 100.441 0.529523 97.2509 0.483714C94.0987 0.440684 91.0873 0.448324 88.0334 0.435368C87.1338 0.431028 86.2105 0.420787 85.2671 0.404679C78.8906 0.277175 72.6728 0.199298 66.6576 0.171605C64.1268 0.167675 61.3929 0.109161 58.813 0.0901925C56.2331 0.0712268 52.7051 0.0642815 49.6447 0.056889L40.1694 0.0580255C38.3057 0.0542506 36.4911 0.0655113 34.683 0.0712093C32.4889 -0.335551 31.7328 -0.430893 28.805 -0.609102C27.8034 -0.674838 26.7845 -0.714067 25.868 -0.722196C22.9615 -0.690041 19.3147 -0.823895 16.5586 -0.806175C14.8955 -0.814915 13.4843 -0.769729 12.4694 -0.675238C11.5885 -0.601081 10.5811 -0.542403 9.46279 -0.500087C6.39945 -0.848064 6.12948 -1.07406 8.43381 -1.16201C9.05814 -1.18246 9.91809 -1.17613 10.3689 -1.21943C10.6276 -1.2458 10.981 -1.26089 11.4009 -1.2635C11.8209 -1.2661 12.2957 -1.25616 12.7882 -1.23446C14.3427 -1.17751 15.7997 -1.16412 17.013 -1.19563C18.1549 -1.23732 19.5546 -1.23566 21.0771 -1.19079C22.1959 -1.12041 23.1793 -1.21978 24.1469 -1.2485C25.1144 -1.27721 25.9085 -1.32879 27.4197 -1.25164C27.6964 -1.23628 27.9712 -1.22705 28.2228 -1.22468C28.4745 -1.22231 28.6964 -1.22684 28.8715 -1.23794C30.4946 -1.28763 32.4315 -1.28241 34.5249 -1.22271C37.7355 -1.16396 40.7479 -1.16175 43.4575 -1.21617C45.0795 -1.26379 46.4625 -1.34823 47.5523 -1.4662C47.8493 -1.50565 48.2904 -1.52931 48.8333 -1.53491C51.5596 -1.51029 54.5198 -1.41766 57.5231 -1.26297C58.6545 -1.20099 59.7844 -1.15197 60.8888 -1.11694C63.1585 -1.03913 65.3538 -0.995524 67.4095 -0.987422C70.3967 -0.986138 73.5069 -0.956198 76.7124 -0.897878C78.6907 -0.865404 80.5968 -0.853419 82.4083 -0.862052C84.2702 -0.866122 86.2582 -0.841349 88.3271 -0.788316C90.3846 -0.745098 92.1977 -0.77 93.548 -0.860006C93.9926 -0.908507 94.3508 -0.966102 94.6157 -1.03171C91.6032 -1.24522 88.4876 -1.35372 85.8962 -1.33538C84.912 -1.34952 84.0947 -1.33525 83.0575 -1.41841L83.025 -1.39059C82.8186 -1.37254 82.5072 -1.36828 82.1502 -1.37863C81.7932 -1.38897 81.4155 -1.4132 81.089 -1.44669C81.2123 -1.55239 81.3292 -1.65254 81.4136 -1.72486C83.388 -1.7121 85.3051 -1.71314 87.1551 -1.72797C88.7145 -1.74931 90.8315 -1.56239 92.1813 -1.63275C94.8141 -1.54477 96.4904 -1.66625 98.8513 -1.6312C101.212 -1.59614 103.813 -1.48034 106.174 -1.44528C108.234 -1.42605 110.234 -1.42187 112.164 -1.43276C112.83 -1.44805 113.597 -1.44446 114.42 -1.42222C115.576 -1.38036 116.651 -1.37335 117.522 -1.40198C118.394 -1.43062 119.025 -1.49375 119.346 -1.58413C119.044 -1.66879 118.638 -1.77795 118.169 -1.89103C119.031 -1.98395 120.34 -2.02307 121.902 -2.00258L124.109 -2.00707C124.694 -2.00461 125.141 -2.02974 125.358 -2.07723C125.575 -2.12472 125.545 -2.19095 125.274 -2.26223C121.089 -2.62104 120.935 -2.66059 117.864 -2.4298L113.786 -2.53705L113.854 -2.5387ZM169.015 -1.55306L168.704 -1.5726L169.015 -1.55306ZM677.235 36.6222L677.163 36.6834L677.241 36.6167L677.925 36.6597L677.97 36.6207L677.235 36.6222ZM577.965 9.79826C576.999 9.73149 576.023 9.67011 575.044 9.61449C574.788 9.60586 574.548 9.60391 574.345 9.60881C574.141 9.6137 573.981 9.62529 573.877 9.64259C573.799 9.70935 574.346 9.75568 574.843 9.78696C575.47 9.82906 576.11 9.85581 576.698 9.86446C577.287 9.87311 577.801 9.86334 578.188 9.83615L578.75 9.8118L577.965 9.79826ZM80.2056 26.0701C80.8418 26.0814 81.4452 26.0832 82.0008 26.0756C84.4656 26.0216 86.8255 25.9431 89.3525 25.8931C92.5409 25.766 96.2047 25.7143 100.206 25.7398C101.77 25.7523 103.091 25.7111 104.015 25.621C104.568 25.5727 105.282 25.5445 106.113 25.5381L116.692 25.3914C117.346 25.3609 117.911 25.3183 118.375 25.2643C117.443 25.2057 116.821 25.1666 116.448 25.1431C115.674 25.1365 115.009 25.1544 114.52 25.195C113.993 25.2637 113.104 25.2909 112.029 25.2712C110.943 25.2549 109.884 25.2461 108.857 25.2449C106.918 25.2483 104.966 25.2629 103.021 25.2719C102.264 25.4631 100.03 25.3763 98.1171 25.3575L96.6392 25.3661C91.8087 25.4652 87.1944 25.6017 82.8188 25.7747C81.9731 25.804 81.2445 25.8507 80.6555 25.9133C80.4336 25.9622 80.3625 26.0231 80.4478 26.0914L80.1371 26.0718L80.2056 26.0701ZM295.918 44.3578C297.09 44.3708 298.311 44.3975 299.561 44.4376C300.525 44.4786 301.465 44.5034 302.345 44.5112C307.271 44.5541 312.406 44.6531 317.678 44.8069C318.368 44.8302 319.03 44.8417 319.64 44.8408L323.956 44.8017C325.316 44.7798 325.342 44.7575 324.352 44.4623C323.53 44.4051 322.699 44.3528 321.866 44.3059C321.368 44.2747 320.56 44.2238 320.371 44.2716C319.218 44.4022 317.115 44.3176 315.346 44.29C310.225 44.2186 304.944 44.1133 299.774 44.027C298.681 44.0059 297.622 43.9952 296.608 43.9951C295.979 43.9907 295.406 43.999 294.912 44.0197C294.767 44.0218 294.646 44.028 294.557 44.0379C294.468 44.0477 294.412 44.0609 294.393 44.0767C294.375 44.0925 294.394 44.1105 294.45 44.1294C294.506 44.1484 294.597 44.1679 294.717 44.1866C295.14 44.2523 295.629 44.3153 296.167 44.3734L295.918 44.3578ZM333.431 1.51604L338.476 1.48104C339.081 1.47729 339.594 1.43789 340.241 1.45474C343.696 1.50813 346.894 1.49326 349.7 1.41076C350.656 1.37709 351.774 1.37036 352.992 1.39093C356.724 1.4519 360.245 1.45441 363.459 1.39839C365.536 1.38714 367.48 1.34938 369.261 1.28566C369.398 1.27087 369.484 1.25079 369.512 1.22678C369.54 1.20278 369.51 1.17542 369.424 1.14657C369.401 1.12835 369.34 1.10874 369.245 1.0891C369.149 1.06947 369.022 1.05026 368.871 1.03283C368.72 1.01539 368.549 1.00013 368.371 0.988095C368.192 0.976058 368.01 0.967525 367.836 0.9631C365.585 0.876849 363.448 0.846801 361.6 0.875394C359.887 0.90961 358.042 0.919621 356.094 0.905272C354.231 0.901499 352.966 1.01306 350.664 0.927935C349.69 0.899903 348.831 0.909131 348.231 0.954074C347.025 1.02857 345.342 1.03271 343.481 0.965768C342.367 0.931887 341.303 0.91736 340.328 0.922735C337.965 0.947225 335.706 0.996227 333.515 1.04358C332.825 1.05453 332.086 1.05604 331.309 1.04808L320.341 0.955361C317.706 0.926923 315.077 0.892918 312.49 0.879515C310.375 0.850412 308.407 0.859526 306.654 0.906535C304.786 0.955948 302.749 0.976007 300.58 0.966336C297.213 0.993377 293.864 1.00372 290.199 1.00008C287.861 1.00232 285.468 0.995087 283.025 0.972814C281.79 0.944147 280.741 0.967492 280.08 1.03835C279.678 1.09669 278.733 1.04917 277.948 1.03563C273.762 0.905132 269.836 0.874214 266.445 0.945019C266.012 0.956557 265.536 0.960734 265.029 0.957478C261.763 0.955047 258.379 0.939232 255.243 0.939057C254.417 0.944558 253.641 0.959654 252.922 0.984153C252.999 1.02412 253.218 1.06744 253.535 1.10513C253.851 1.14281 254.24 1.17198 254.621 1.18656C257.586 1.29823 260.45 1.35721 263.09 1.36105C267.486 1.34683 272.091 1.37881 276.857 1.45665C280.554 1.53513 283.926 1.5186 286.721 1.40831C288.905 1.32601 291.747 1.35698 294.758 1.49589C296.047 1.56223 297.297 1.58876 298.339 1.57184C299.342 1.54966 300.492 1.55504 301.723 1.58767C304.319 1.64971 306.815 1.67848 309.162 1.67343C311.457 1.6506 313.598 1.58821 315.956 1.56928C318.313 1.55035 321.903 1.5612 324.809 1.52904C327.716 1.49689 330.59 1.49256 333.431 1.51604ZM124.396 -1.73821C124.662 -1.56619 125.605 -1.45911 126.619 -1.41324C130.115 -1.20957 133.571 -1.12289 136.407 -1.16777C137.939 -1.23037 139.981 -1.20628 142.133 -1.10022C144.638 -0.989965 146.979 -0.97168 148.744 -1.04859C149.177 -1.06202 149.508 -1.09043 149.708 -1.13128C149.747 -1.16466 149.818 -1.22586 149.831 -1.23699C149.646 -1.2652 149.418 -1.29135 149.167 -1.31341C148.915 -1.33547 148.645 -1.35285 148.379 -1.3642L136.799 -1.56112L134.781 -1.60446C131.096 -1.71798 127.584 -1.76321 124.396 -1.73821ZM147.173 0.984534C148.98 1.26543 148.986 1.25986 149.912 1.32407C154.379 1.5908 158.842 1.73478 162.772 1.73889C163.645 1.73807 164.386 1.71096 164.932 1.65982C165.214 1.65289 165.392 1.63087 165.43 1.59856C165.468 1.56625 165.361 1.52628 165.134 1.48735L163.697 1.28946C161.087 1.20378 158.514 1.13571 155.995 1.08565C153.062 1.02653 150.462 1.02425 147.421 1.00017L147.173 0.984534ZM295.702 43.1139C297.386 43.5005 297.392 43.495 300.211 43.5947C302.176 43.6653 304.082 43.7068 305.872 43.7179C308.06 43.7301 310.303 43.7517 312.484 43.7695C313.016 43.7818 313.468 43.7716 313.75 43.7408C314.033 43.71 314.126 43.6609 314.013 43.6029C313.726 43.54 313.279 43.4791 312.742 43.4302C312.206 43.3813 311.612 43.3472 311.058 43.3334L309.868 43.3242C308.422 43.305 306.921 43.2762 305.525 43.272C304.619 43.288 303.57 43.2757 302.459 43.2358C301.348 43.196 300.205 43.1298 299.121 43.0424L295.702 43.1139ZM156.165 -1.23272C156.614 -1.16577 157.123 -1.10164 157.677 -1.04205C159.822 -0.876879 162.092 -0.783067 164.042 -0.779007C164.964 -0.768776 165.807 -0.805308 166.746 -0.75222C168.43 -0.681281 170.062 -0.643493 171.553 -0.640902C171.553 -0.640902 171.972 -0.656392 172.109 -0.659699L172.395 -0.904494C171.688 -0.961205 170.952 -1.00753 170.219 -1.04135C167.76 -1.10648 165.343 -1.151 162.933 -1.2011C160.523 -1.25119 159.683 -1.2742 158.106 -1.29571C157.403 -1.28388 156.753 -1.26279 156.165 -1.23272ZM102.907 29.2002L106.126 29.7013C107.167 29.7448 108.14 29.7527 108.896 29.7238C109.653 29.6948 110.151 29.6306 110.316 29.5409C110.581 29.4989 110.607 29.4367 110.39 29.3674C110.172 29.298 109.727 29.2268 109.149 29.1689C108.592 29.1001 107.956 29.0385 107.28 28.9878C106.605 28.9371 105.905 28.8984 105.223 28.8741L102.907 29.2002ZM129.703 26.7055C127.598 26.6206 125.585 26.5859 123.817 26.604C122.703 26.6537 121.194 26.6378 119.599 26.5596C116.698 26.4037 113.902 26.3606 111.8 26.4393C111.8 26.4393 111.722 26.506 111.366 26.5254C111.01 26.5448 112.422 26.5919 112.733 26.6114C115.013 26.6593 117.305 26.696 119.286 26.7131C120.517 26.7124 121.818 26.7282 123.168 26.7602C125.025 26.8096 126.787 26.8257 128.383 26.8076C128.383 26.8076 129.001 26.7927 129.697 26.7111L129.703 26.7055ZM354.506 0.608281C353.501 0.513917 352.41 0.437224 351.317 0.383961C350.224 0.330695 349.156 0.302243 348.193 0.300729C347.456 0.295806 346.859 0.320719 346.498 0.371532C346.137 0.422345 346.031 0.496159 346.198 0.581299C346.944 0.62822 347.938 0.69078 348.497 0.725969C350.436 0.722527 352.09 0.67728 354.506 0.608281ZM542.715 8.56015C541.908 8.48419 541.02 8.42611 540.15 8.39255C539.281 8.35899 538.466 8.3513 537.799 8.37036C537.456 8.37862 537.689 8.46494 537.63 8.51501C537.592 8.52636 537.593 8.54048 537.632 8.55589C537.671 8.5713 537.747 8.58743 537.852 8.60259C537.957 8.61775 538.087 8.63138 538.229 8.64206C538.371 8.65273 538.519 8.66007 538.658 8.66328C539.533 8.696 540.36 8.70574 541.063 8.69163C541.766 8.67752 542.325 8.64 542.689 8.58241L542.715 8.56015ZM555.325 9.64605C555.2 9.60123 554.935 9.55451 554.577 9.51446C554.219 9.47442 553.794 9.44372 553.378 9.42801C552.643 9.4259 551.975 9.43833 551.4 9.46483C550.776 9.48527 551.225 9.61505 552.069 9.69205C552.427 9.72295 552.809 9.74706 553.185 9.76245C553.561 9.77784 553.921 9.78409 554.235 9.78071C554.55 9.77732 554.812 9.76439 554.999 9.74295C555.185 9.72151 555.293 9.69214 555.312 9.65718L555.325 9.64605ZM188.901 -0.755954C187.02 -0.916109 185.572 -0.875818 183.979 -0.940188C182.386 -1.00456 181.993 -1.01133 182.207 -0.908326C182.42 -0.805323 183.512 -0.826213 184.196 -0.783202C185.12 -0.72613 186.049 -0.69336 186.88 -0.688546C187.711 -0.683734 188.411 -0.707071 188.901 -0.755954ZM580.945 26.3428C579.948 26.3069 578.972 26.2815 578.031 26.267C577.907 26.2819 577.829 26.3014 577.803 26.3243C577.776 26.3472 577.801 26.3731 577.875 26.4005C577.875 26.4005 578.513 26.4825 578.886 26.5059C580.26 26.5864 580.328 26.4712 580.945 26.3428ZM721.79 41.2644C722.465 41.3726 722.779 41.4461 723.319 41.498C723.567 41.516 723.824 41.5291 724.069 41.5363C724.315 41.5434 724.544 41.5445 724.738 41.5395C724.976 41.5083 725.031 41.4607 724.894 41.4059C724.894 41.4059 724.207 41.309 723.945 41.3045C723.199 41.2815 722.476 41.2681 721.79 41.2644ZM156.877 -1.67164C155.447 -1.76157 154.08 -1.8476 153.09 -1.74265C155.36 -1.62971 155.36 -1.6297 156.877 -1.67164ZM180.031 -0.645051C178.588 -0.837383 177.741 -0.854836 177.048 -0.832738C176.901 -0.827172 176.803 -0.814765 176.77 -0.797403C176.737 -0.780043 176.771 -0.758667 176.866 -0.736512C176.96 -0.714355 177.111 -0.692625 177.295 -0.674608C177.48 -0.65659 177.687 -0.643263 177.887 -0.636649C178.639 -0.631113 179.357 -0.633924 180.031 -0.645051ZM254.328 -0.563722C254.36 -0.59154 254.399 -0.624921 254.026 -0.648381C253.929 -0.66029 253.814 -0.670532 253.694 -0.678082C253.574 -0.685632 253.453 -0.690218 253.343 -0.691386C253.343 -0.691386 253.304 -0.658003 253.278 -0.635749L254.328 -0.563722ZM305.921 45.62L305.091 45.6454L305.464 45.6689L306.448 45.683L305.921 45.62ZM598.265 9.21198C597.954 9.19243 597.643 9.17288 597.598 9.21183C597.532 9.21786 597.492 9.22656 597.479 9.23721C597.467 9.24786 597.483 9.26013 597.526 9.27303C597.526 9.27303 597.961 9.3004 598.148 9.31213L598.265 9.21198ZM549.864 9.52346C549.659 9.52123 549.475 9.52384 549.321 9.53113L549.282 9.56451L549.904 9.60361L549.864 9.52346ZM128.062 17.4772C127.822 17.4569 127.567 17.4409 127.316 17.4302L127.005 17.4107C127.005 17.4107 127.339 17.4675 127.525 17.4793C127.712 17.491 127.862 17.4766 128.062 17.4772Z" fill="#0F5AED"/>
</g>
</svg>
